<svg id="visual" viewBox="0 0 900 600" width="900" height="600" xmlns="http://www.w3.org/2000/svg" xmlns:xlink="http://www.w3.org/1999/xlink" version="1.1"><g stroke-width="1" stroke-linejoin="bevel"><path d="M410 291L306 300L395 363Z" fill="#231d43" stroke="#231d43"></path><path d="M306 300L322 433L395 363Z" fill="#00101c" stroke="#00101c"></path><path d="M410 291L415 199L306 300Z" fill="#05162a" stroke="#05162a"></path><path d="M415 199L279 207L306 300Z" fill="#7d0044" stroke="#7d0044"></path><path d="M306 300L172 412L322 433Z" fill="#7d0044" stroke="#7d0044"></path><path d="M538 383L513 295L395 363Z" fill="#00101c" stroke="#00101c"></path><path d="M395 363L513 295L410 291Z" fill="#05162a" stroke="#05162a"></path><path d="M410 291L513 295L415 199Z" fill="#381c4b" stroke="#381c4b"></path><path d="M279 207L204 261L306 300Z" fill="#8f0038" stroke="#8f0038"></path><path d="M277 528L364 498L322 433Z" fill="#7d0044" stroke="#7d0044"></path><path d="M322 433L364 498L395 363Z" fill="#101b38" stroke="#101b38"></path><path d="M279 207L205 220L204 261Z" fill="#9d0027" stroke="#9d0027"></path><path d="M513 295L478 170L415 199Z" fill="#231d43" stroke="#231d43"></path><path d="M415 199L296 122L279 207Z" fill="#381c4b" stroke="#381c4b"></path><path d="M279 207L212 106L205 220Z" fill="#a51111" stroke="#a51111"></path><path d="M476 508L538 383L395 363Z" fill="#231d43" stroke="#231d43"></path><path d="M513 295L634 174L478 170Z" fill="#8f0038" stroke="#8f0038"></path><path d="M396 64L296 122L415 199Z" fill="#9d0027" stroke="#9d0027"></path><path d="M118 386L172 412L204 261Z" fill="#381c4b" stroke="#381c4b"></path><path d="M204 261L172 412L306 300Z" fill="#381c4b" stroke="#381c4b"></path><path d="M538 383L581 336L513 295Z" fill="#670c4c" stroke="#670c4c"></path><path d="M364 498L476 508L395 363Z" fill="#381c4b" stroke="#381c4b"></path><path d="M538 383L570 413L581 336Z" fill="#9d0027" stroke="#9d0027"></path><path d="M172 412L277 528L322 433Z" fill="#a51111" stroke="#a51111"></path><path d="M364 498L367 600L476 508Z" fill="#50174e" stroke="#50174e"></path><path d="M476 508L570 413L538 383Z" fill="#670c4c" stroke="#670c4c"></path><path d="M60 315L118 386L204 261Z" fill="#a51111" stroke="#a51111"></path><path d="M172 412L176 535L277 528Z" fill="#381c4b" stroke="#381c4b"></path><path d="M478 170L396 64L415 199Z" fill="#670c4c" stroke="#670c4c"></path><path d="M261 0L212 106L296 122Z" fill="#7d0044" stroke="#7d0044"></path><path d="M296 122L212 106L279 207Z" fill="#7d0044" stroke="#7d0044"></path><path d="M205 220L117 189L204 261Z" fill="#05162a" stroke="#05162a"></path><path d="M628 118L481 86L478 170Z" fill="#9d0027" stroke="#9d0027"></path><path d="M478 170L481 86L396 64Z" fill="#381c4b" stroke="#381c4b"></path><path d="M212 106L117 189L205 220Z" fill="#231d43" stroke="#231d43"></path><path d="M118 386L122 467L172 412Z" fill="#a51111" stroke="#a51111"></path><path d="M332 600L364 498L277 528Z" fill="#7d0044" stroke="#7d0044"></path><path d="M332 600L367 600L364 498Z" fill="#05162a" stroke="#05162a"></path><path d="M196 600L332 600L277 528Z" fill="#05162a" stroke="#05162a"></path><path d="M122 467L176 535L172 412Z" fill="#101b38" stroke="#101b38"></path><path d="M117 189L60 315L204 261Z" fill="#7d0044" stroke="#7d0044"></path><path d="M118 386L0 399L122 467Z" fill="#381c4b" stroke="#381c4b"></path><path d="M495 600L580 528L476 508Z" fill="#50174e" stroke="#50174e"></path><path d="M476 508L580 528L570 413Z" fill="#231d43" stroke="#231d43"></path><path d="M679 380L665 261L581 336Z" fill="#00101c" stroke="#00101c"></path><path d="M665 261L634 174L513 295Z" fill="#381c4b" stroke="#381c4b"></path><path d="M665 261L513 295L581 336Z" fill="#00101c" stroke="#00101c"></path><path d="M679 380L581 336L570 413Z" fill="#7d0044" stroke="#7d0044"></path><path d="M367 600L495 600L476 508Z" fill="#50174e" stroke="#50174e"></path><path d="M487 0L362 0L396 64Z" fill="#a51111" stroke="#a51111"></path><path d="M396 64L362 0L296 122Z" fill="#101b38" stroke="#101b38"></path><path d="M487 0L396 64L481 86Z" fill="#8f0038" stroke="#8f0038"></path><path d="M238 0L124 101L212 106Z" fill="#381c4b" stroke="#381c4b"></path><path d="M212 106L124 101L117 189Z" fill="#50174e" stroke="#50174e"></path><path d="M0 200L0 324L60 315Z" fill="#670c4c" stroke="#670c4c"></path><path d="M697 472L679 380L570 413Z" fill="#00101c" stroke="#00101c"></path><path d="M92 600L196 600L176 535Z" fill="#9d0027" stroke="#9d0027"></path><path d="M176 535L196 600L277 528Z" fill="#670c4c" stroke="#670c4c"></path><path d="M362 0L261 0L296 122Z" fill="#50174e" stroke="#50174e"></path><path d="M664 175L628 118L634 174Z" fill="#101b38" stroke="#101b38"></path><path d="M634 174L628 118L478 170Z" fill="#231d43" stroke="#231d43"></path><path d="M665 261L664 175L634 174Z" fill="#231d43" stroke="#231d43"></path><path d="M725 108L664 175L780 225Z" fill="#50174e" stroke="#50174e"></path><path d="M261 0L238 0L212 106Z" fill="#101b38" stroke="#101b38"></path><path d="M605 0L487 0L481 86Z" fill="#381c4b" stroke="#381c4b"></path><path d="M60 315L0 399L118 386Z" fill="#670c4c" stroke="#670c4c"></path><path d="M122 467L92 600L176 535Z" fill="#7d0044" stroke="#7d0044"></path><path d="M0 200L60 315L117 189Z" fill="#9d0027" stroke="#9d0027"></path><path d="M495 600L592 600L580 528Z" fill="#381c4b" stroke="#381c4b"></path><path d="M580 528L697 472L570 413Z" fill="#50174e" stroke="#50174e"></path><path d="M0 324L0 399L60 315Z" fill="#a51111" stroke="#a51111"></path><path d="M733 600L697 472L580 528Z" fill="#7d0044" stroke="#7d0044"></path><path d="M780 225L664 175L665 261Z" fill="#05162a" stroke="#05162a"></path><path d="M0 78L0 200L124 101Z" fill="#9d0027" stroke="#9d0027"></path><path d="M124 101L0 200L117 189Z" fill="#381c4b" stroke="#381c4b"></path><path d="M0 469L92 600L122 467Z" fill="#231d43" stroke="#231d43"></path><path d="M0 399L0 469L122 467Z" fill="#9d0027" stroke="#9d0027"></path><path d="M726 0L605 0L628 118Z" fill="#7d0044" stroke="#7d0044"></path><path d="M628 118L605 0L481 86Z" fill="#9d0027" stroke="#9d0027"></path><path d="M783 316L665 261L679 380Z" fill="#a51111" stroke="#a51111"></path><path d="M664 175L725 108L628 118Z" fill="#8f0038" stroke="#8f0038"></path><path d="M822 434L783 316L679 380Z" fill="#101b38" stroke="#101b38"></path><path d="M238 0L74 0L124 101Z" fill="#670c4c" stroke="#670c4c"></path><path d="M783 316L780 225L665 261Z" fill="#8f0038" stroke="#8f0038"></path><path d="M74 0L0 78L124 101Z" fill="#670c4c" stroke="#670c4c"></path><path d="M733 600L766 473L697 472Z" fill="#231d43" stroke="#231d43"></path><path d="M697 472L766 473L679 380Z" fill="#a51111" stroke="#a51111"></path><path d="M0 469L0 600L92 600Z" fill="#7d0044" stroke="#7d0044"></path><path d="M592 600L733 600L580 528Z" fill="#7d0044" stroke="#7d0044"></path><path d="M780 225L777 97L725 108Z" fill="#a51111" stroke="#a51111"></path><path d="M725 108L726 0L628 118Z" fill="#05162a" stroke="#05162a"></path><path d="M900 126L777 97L780 225Z" fill="#05162a" stroke="#05162a"></path><path d="M766 473L822 434L679 380Z" fill="#670c4c" stroke="#670c4c"></path><path d="M783 316L900 290L780 225Z" fill="#05162a" stroke="#05162a"></path><path d="M900 429L822 434L900 522Z" fill="#a51111" stroke="#a51111"></path><path d="M74 0L0 0L0 78Z" fill="#05162a" stroke="#05162a"></path><path d="M777 97L726 0L725 108Z" fill="#50174e" stroke="#50174e"></path><path d="M900 0L768 0L777 97Z" fill="#50174e" stroke="#50174e"></path><path d="M777 97L768 0L726 0Z" fill="#101b38" stroke="#101b38"></path><path d="M900 429L900 290L822 434Z" fill="#a51111" stroke="#a51111"></path><path d="M822 434L900 290L783 316Z" fill="#231d43" stroke="#231d43"></path><path d="M900 522L822 434L766 473Z" fill="#a51111" stroke="#a51111"></path><path d="M900 290L900 195L780 225Z" fill="#8f0038" stroke="#8f0038"></path><path d="M733 600L839 600L766 473Z" fill="#670c4c" stroke="#670c4c"></path><path d="M900 195L900 126L780 225Z" fill="#7d0044" stroke="#7d0044"></path><path d="M839 600L900 522L766 473Z" fill="#101b38" stroke="#101b38"></path><path d="M839 600L900 600L900 522Z" fill="#7d0044" stroke="#7d0044"></path><path d="M900 126L900 0L777 97Z" fill="#05162a" stroke="#05162a"></path></g></svg>